<?xml version="1.0" encoding="UTF-8" standalone="no"?>
<svg
   xmlns:dc="http://purl.org/dc/elements/1.1/"
   xmlns:cc="http://creativecommons.org/ns#"
   xmlns:rdf="http://www.w3.org/1999/02/22-rdf-syntax-ns#"
   xmlns:svg="http://www.w3.org/2000/svg"
   xmlns="http://www.w3.org/2000/svg"
   xmlns:sodipodi="http://sodipodi.sourceforge.net/DTD/sodipodi-0.dtd"
   xmlns:inkscape="http://www.inkscape.org/namespaces/inkscape"
   width="705.467mm"
   height="705.467mm"
   viewBox="0 0 2000 2000"
   version="1.1"
   id="svg4"
   sodipodi:docname="nor.svg"
   inkscape:version="0.92.5 (2060ec1f9f, 2020-04-08)">
  <metadata
     id="metadata10">
    <rdf:RDF>
      <cc:Work
         rdf:about="">
        <dc:format>image/svg+xml</dc:format>
        <dc:type
           rdf:resource="http://purl.org/dc/dcmitype/StillImage" />
      </cc:Work>
    </rdf:RDF>
  </metadata>
  <defs
     id="defs8" />
  <sodipodi:namedview
     pagecolor="#ffffff"
     bordercolor="#666666"
     borderopacity="1"
     objecttolerance="10"
     gridtolerance="10"
     guidetolerance="10"
     inkscape:pageopacity="0"
     inkscape:pageshadow="2"
     inkscape:window-width="3768"
     inkscape:window-height="2096"
     id="namedview6"
     showgrid="false"
     inkscape:zoom="0.50069446"
     inkscape:cx="-284.65192"
     inkscape:cy="882.10722"
     inkscape:window-x="72"
     inkscape:window-y="27"
     inkscape:window-maximized="1"
     inkscape:current-layer="svg4" />
  <path
     id="Selection"
     d="m 974.55948,103.57943 c -5.69671,0.99525 -11.49321,0.69936 -17.23526,0.70833 0,0 -17.23522,1.71254 -17.23522,1.71254 0,0 -30.842,2.02636 -30.842,2.02636 0,0 -8.16405,1.48838 -8.16405,1.48838 0,0 -21.77082,2.21466 -21.77082,2.21466 -54.64474,7.95301 -103.29344,19.26836 -156.02418,35.55994 0,0 -16.32812,5.69353 -16.32812,5.69353 -43.03363,14.88389 -84.95153,32.34107 -125.18218,53.62682 0,0 -23.58505,12.32853 -23.58505,12.32853 -42.81594,24.01147 -84.02628,51.71703 -122.46085,82.11244 -107.93788,85.34923 -195.59263,196.80802 -253.89306,320.58637 -28.90983,61.40052 -51.36099,127.36484 -65.30337,193.66986 0,0 -9.4431,54.6938 -9.4431,54.6938 0,0 -3.51961,27.79523 -3.51961,27.79523 0,0 -1.50582,8.06957 -1.50582,8.06957 0,0 -2.05008,30.48507 -2.05008,30.48507 0,0 -1.732595,15.24253 -1.732595,15.24253 0,0 0,12.55268 0,12.55268 0,0 -0.907117,13.44929 -0.907117,13.44929 0,0 0,44.83094 0,44.83094 0,0 0.943401,13.4494 0.943401,13.4494 0,0 0,15.2425 0,15.2425 0,0 1.696311,12.5525 1.696311,12.5525 0,0 2.05008,30.4853 2.05008,30.4853 0,0 1.50582,8.0695 1.50582,8.0695 3.03884,27.6787 7.22065,55.2049 12.96271,82.4891 42.21724,200.7262 157.19435,386.1561 319.19643,514.2562 82.49325,65.238 171.63567,113.6106 271.22808,148.0678 55.97823,19.3759 113.73438,32.7176 172.3523,41.2534 0,0 21.77082,2.2146 21.77082,2.2146 0,0 8.16405,1.4884 8.16405,1.4884 0,0 22.67794,1.9816 22.67794,1.9816 0,0 9.07117,0 9.07117,0 0,0 14.51388,1.7573 14.51388,1.7573 0,0 12.69961,0 12.69961,0 0,0 13.60682,0.8967 13.60682,0.8967 0,0 45.35588,0 45.35588,0 0,0 15.4211,-0.9684 15.4211,-0.9684 0,0 14.5139,0 14.5139,0 0,0 11.7923,-1.6408 11.7923,-1.6408 0,0 30.842,-2.0264 30.842,-2.0264 0,0 8.1641,-1.4884 8.1641,-1.4884 0,0 21.7708,-2.2146 21.7708,-2.2146 44.9749,-6.5453 89.7412,-15.7357 133.3462,-28.6023 113.172,-33.3989 217.9895,-87.77 310.2342,-160.7189 0,0 44.4489,-37.9988 44.4489,-37.9988 0,0 31.7399,-29.7409 31.7399,-29.7409 100.6356,-101.7931 172.0075,-217.493 217.4632,-352.3715 16.9449,-50.3093 28.4653,-102.7346 36.2666,-155.1152 0,0 2.2405,-21.5189 2.2405,-21.5189 0,0 1.5058,-8.0695 1.5058,-8.0695 0,0 2.0502,-30.4853 2.0502,-30.4853 0,0 1.6601,-11.6559 1.6601,-11.6559 0,0 0,-14.3459 0,-14.3459 0,0 0.9795,-15.2426 0.9795,-15.2426 0,0 0,-44.83094 0,-44.83094 0,0 -0.9071,-14.34591 -0.9071,-14.34591 0,0 0,-11.65606 0,-11.65606 0,0 -1.7779,-14.34592 -1.7779,-14.34592 0,0 0,-8.9662 0,-8.9662 0,0 -2.0048,-22.41548 -2.0048,-22.41548 0,0 -1.5058,-8.06957 -1.5058,-8.06957 0,0 -2.2405,-21.51888 -2.2405,-21.51888 -5.5878,-37.52355 -13.1532,-74.56291 -23.2404,-111.18085 -41.3645,-150.21069 -120.5468,-286.38034 -231.3874,-397.20253 0,0 -30.8419,-28.84426 -30.8419,-28.84426 0,0 -44.4489,-37.99874 -44.4489,-37.99874 -98.3951,-77.80867 -209.6076,-133.66807 -331.0979,-166.34986 -37.0466,-9.97041 -74.5196,-17.44822 -112.4825,-22.9714 0,0 -21.7708,-2.21466 -21.7708,-2.21466 0,0 -8.1641,-1.48838 -8.1641,-1.48838 0,0 -30.842,-2.02636 -30.842,-2.02636 0,0 -11.7923,-1.64082 -11.7923,-1.64082 0,0 -15.4211,0 -15.4211,0 0,0 -14.5139,-0.78005 -14.5139,-0.78005 0,0 -52.61282,0 -52.61282,0 z"
     inkscape:connector-curvature="0"
     style="fill:#ffffff;stroke:none;stroke-width:0" />
  <g
     inkscape:groupmode="layer"
     id="layer1"
     inkscape:label="Layer 1"
     style="display:inline">
    <path
       style="fill:#480027;stroke:#480027;stroke-width:1"
       id="Auswahl"
       d="m 968,0.21 c -5.29,0.96 -9.71,0.78 -15,0.79 0,0 -13,0.96 -13,0.96 0,0 -53,4.32 -53,4.32 C 818.64,14.72 757.72,27.34 692,48.34 433.88,130.84 213.61,322.84 97.78,568 55.21,658.11 26.87,749.52 11.58,848 6.85,878.47 3.3,909.23 1.96,940 c 0,0 -1,11 -1,11 0,0 0,13 0,13 0,0 -0.96,12 -0.96,12 0,0 0,48 0,48 0,0 0.96,12 0.96,12 0,0 0,12 0,12 0,0 1,12 1,12 1.12,25.74 3.95,51.42 7.32,77 21.27,161.62 86.95,321.51 182.87,453 53.67,73.57 117.33,139.47 188.85,195.79 86.36,68 181.52,120.08 285,156.9 66.47,23.65 138.93,41.09 209,49.46 0,0 65,5.89 65,5.89 0,0 11,1 11,1 0,0 13,0 13,0 0,0 12,0.96 12,0.96 0,0 48,0 48,0 0,0 17,-1 17,-1 0,0 57,-3.83 57,-3.83 71.98,-7.2 141.06,-21.48 210,-43.51 141.73,-45.3 274.57,-124.87 382,-227.62 0,0 25.96,-25.04 25.96,-25.04 103.63,-108.34 180.51,-231.28 229.7,-373 22.73,-65.52 37.66,-133.31 46.62,-202 0,0 5.76,-64 5.76,-64 0,0 0.96,-19 0.96,-19 0,0 1,-17 1,-17 0,0 0,-48 0,-48 0,0 -0.96,-12 -0.96,-12 0,0 0,-13 0,-13 0,0 -1,-11 -1,-11 0,0 -3.88,-48 -3.88,-48 -5.56,-52.03 -15.33,-103.49 -29.01,-154 -43.33,-160.01 -126.49,-308.17 -241.11,-428 0,0 -9.05,-10 -9.05,-10 0,0 -24.99,-24.04 -24.99,-24.04 C 1570.17,161.34 1422.01,78.18 1262,34.85 1211.49,21.17 1160.03,11.4 1108,5.84 c 0,0 -48,-3.88 -48,-3.88 0,0 -11,-1 -11,-1 0,0 -13,0 -13,0 0,0 -12,-0.75 -12,-0.75 0,0 -56,0 -56,0 z M 528,455.07 c 0,0 39,0 39,0 0,0 74,0 74,0 0,0 222,0 222,0 2.35,-0.07 5.63,-0.29 7.67,0.95 2.25,1.36 3.89,4.73 5.18,6.98 0,0 9.29,16 9.29,16 0,0 44.44,77 44.44,77 0,0 188,326 188,326 0,0 149.57,259 149.57,259 0,0 20.84,36 20.84,36 4.24,7.25 8.17,15.47 13.48,22 11.4,14.03 27.52,21.79 45.53,22 9.68,0.11 20.56,0.96 23.47,-11 0.61,-2.5 0.53,-5.43 0.53,-8 0,0 0,-121 0,-121 0,0 0,-461 0,-461 -0.04,-22.72 -9.76,-37.71 -34,-38 -5.65,-0.06 -12.22,-0.36 -16.79,3.57 -4.24,3.64 -5.14,9.16 -5.21,14.43 0,0 0,34 0,34 0,0 0,171 0,171 -0.03,20.08 -12.91,32.76 -33,33 0,0 -61,0 -61,0 -4.19,-0.01 -6.9,0.06 -11,-1.22 -26.76,-8.33 -22,-37.98 -22,-59.78 0,0 0,-20 0,-20 0,0 0,-270 0,-270 0.01,-4.87 0.01,-7.22 1.44,-12 6.18,-20.65 21.18,-20 38.56,-20 0,0 25,0 25,0 0,0 212,0 212,0 21.09,0.03 32.97,13.24 33,34 0,0 0,166 0,166 0,0 0,661 0,661 -0.03,22.38 -16.07,32.75 -37,33 0,0 -78,0 -78,0 0,0 -136,0 -136,0 -1.88,0 -5.11,0.12 -6.79,-0.6 -3.36,-1.44 -9.65,-13.71 -11.79,-17.4 0,0 -31.62,-55 -31.62,-55 0,0 -61.67,-107 -61.67,-107 0,0 -74.55,-129 -74.55,-129 0,0 -202,-350 -202,-350 0,0 -30.13,-52 -30.13,-52 -5.74,-9.69 -13.79,-25.88 -20.75,-34 -13.16,-15.36 -32.91,-21.97 -52.7,-22 0,0 -223,0 -223,0 -4.49,-0.01 -6.62,0.1 -11,-1.36 -27.06,-9.02 -22,-45.15 -22,-67.64 0,0 0,-18 0,-18 0.03,-7.12 1.04,-17.79 4.53,-24 5.51,-9.81 13.86,-13.7 24.47,-15.93 z m 3,193.03 c 0,0 74,0 74,0 0,0 143,0 143,0 2.38,-0.1 5.71,-0.3 7.79,0.92 2.49,1.47 4.22,5.48 5.63,7.98 0,0 11.58,20 11.58,20 0,0 55.3,96 55.3,96 0,0 27.28,47 27.28,47 0,0 41,71 41,71 0,0 157.42,273 157.42,273 0,0 108.58,188 108.58,188 5.08,8.98 21.1,37.75 26.6,44 13.07,14.84 32.34,21.77 51.82,22 0,0 225,0 225,0 20.7,0.03 31.97,14 32,34 0,0 0,61 0,61 -0.03,20.51 -14.16,31.91 -34,32 0,0 -50,0 -50,0 0,0 -280,0 -280,0 -9.17,-0.02 -8.38,0.05 -16.42,-14 0,0 -14.98,-26 -14.98,-26 0,0 -75.02,-130 -75.02,-130 0,0 -281,-487 -281,-487 0,0 -37.57,-65 -37.57,-65 -8.57,-14.59 -14.42,-27.74 -29.01,-37.78 -13.12,-9.03 -22.87,-9.42 -38,-9.22 -5.94,0.08 -9.91,1.52 -13.07,7 -2.06,3.59 -1.92,8 -1.93,12 0,0 0,583 0,583 0.03,20.03 8.44,37.73 31,38 7.35,0.08 16.35,1.4 21.49,-5.1 4.97,-6.29 3.51,-21.83 3.51,-29.9 0,0 0,-72 0,-72 0,0 0,-100 0,-100 0,-14.42 -2.5,-30.12 10.04,-40.48 11.04,-9.13 22.59,-8.52 35.96,-8.52 0,0 47,0 47,0 4.34,0.05 7.82,0.56 12,1.75 27.1,7.64 22,39.61 22,61.25 0,0 0,18 0,18 0,0 0,270 0,270 -0.01,4.64 -0.13,8.52 -1.6,13 -6.62,20.19 -21.86,20 -39.4,20 0,0 -23,0 -23,0 0,0 -209,0 -209,0 -5.8,-0.01 -12.58,-0.58 -18,-2.76 -16.02,-6.44 -19.98,-23.68 -20,-39.24 0,0 0,-145 0,-145 0,0 0,-541 0,-541 0,0 0,-96 0,-96 0,-11.78 -0.9,-40.01 2.22,-50 4.57,-14.63 15.92,-19.42 29.78,-21.9 z"
       inkscape:connector-curvature="0" />
  </g>
  <g
     inkscape:groupmode="layer"
     id="layer2"
     inkscape:label="Layer 2" />
</svg>
